<?xml version="1.0" standalone="no"?>
<!DOCTYPE svg PUBLIC "-//W3C//DTD SVG 20010904//EN"
 "http://www.w3.org/TR/2001/REC-SVG-20010904/DTD/svg10.dtd">
<svg version="1.0" xmlns="http://www.w3.org/2000/svg"
 width="197.000000pt" height="197.000000pt" viewBox="0 0 197.000000 197.000000"
 preserveAspectRatio="xMidYMid meet">
<metadata>
Created by potrace 1.11, written by Peter Selinger 2001-2013
</metadata>
<g transform="translate(0.000000,197.000000) scale(0.100000,-0.100000)"
fill="#000000" stroke="none">
<path d="M494 1941 c-3 -3 -53 -6 -112 -7 -59 -1 -107 -3 -107 -4 0 -1 -43 -4
-95 -5 -135 -5 -136 -5 -143 -46 -9 -45 5 -53 95 -55 46 -1 84 -3 86 -4 1 -1
10 -3 20 -4 32 -4 72 -29 72 -46 0 -9 3 -20 7 -24 4 -4 9 -19 11 -34 6 -55 7
-1394 0 -1398 -4 -2 -5 -14 -3 -26 3 -11 1 -26 -3 -32 -4 -6 -7 -13 -8 -16
-11 -57 -69 -82 -199 -84 -38 -1 -75 -5 -82 -9 -13 -8 -9 -67 6 -76 9 -6 999
-4 1116 2 33 2 65 6 71 9 6 4 19 5 30 4 10 -2 24 1 31 6 7 5 17 7 22 4 5 -4
13 -1 16 5 4 5 13 8 20 5 7 -2 16 -2 20 2 4 4 10 7 13 8 4 0 20 6 35 12 16 7
32 12 37 12 5 0 25 9 44 19 19 11 37 17 40 14 3 -4 6 -1 6 5 0 7 5 12 11 12
36 0 190 138 245 220 37 54 95 160 88 160 -2 0 2 13 11 29 8 17 17 40 19 53 3
13 5 23 6 23 1 0 3 7 5 15 2 8 7 26 10 40 11 42 26 188 25 245 -1 57 -8 180
-10 180 -2 0 -4 11 -6 25 -7 52 -10 66 -18 78 -4 6 -5 16 -1 21 3 5 1 12 -4
15 -4 3 -8 18 -8 33 -1 15 -6 29 -12 31 -6 2 -11 10 -11 18 0 9 -12 41 -27 72
-90 190 -285 364 -478 427 -11 3 -21 6 -22 6 -2 0 -18 6 -38 15 -19 8 -35 11
-35 8 0 -4 -6 -1 -14 5 -7 6 -21 9 -30 5 -9 -3 -16 -2 -16 4 0 6 -11 9 -25 7
-14 -1 -27 1 -30 4 -2 4 -41 6 -87 6 -91 -1 -147 -20 -206 -69 -34 -30 -79
-99 -89 -138 -6 -28 -8 -125 -1 -153 13 -58 63 -122 144 -184 35 -28 133 -41
198 -26 102 22 208 126 223 220 8 50 9 107 1 111 -5 3 -6 9 -3 14 7 11 94 -83
132 -142 52 -82 87 -165 100 -233 8 -45 11 -60 13 -60 2 0 11 -64 13 -90 1
-22 -33 -98 -41 -91 -2 3 -17 -1 -32 -9 -15 -8 -30 -12 -33 -9 -3 3 -12 2 -19
-2 -7 -5 -29 -10 -48 -11 -112 -6 -142 -11 -149 -22 -9 -14 -6 -59 4 -69 6 -6
71 -10 237 -15 90 -2 114 -11 98 -36 -6 -11 -34 -15 -112 -16 -57 0 -107 -3
-113 -7 -5 -3 -32 -5 -58 -4 -52 3 -65 -8 -61 -52 2 -32 8 -36 67 -39 65 -3
142 -10 142 -13 0 -1 14 -4 30 -6 45 -8 83 -49 79 -85 -2 -16 -6 -42 -8 -57
-2 -15 -9 -38 -15 -50 -6 -12 -9 -22 -5 -22 3 0 1 -7 -6 -15 -7 -8 -9 -15 -6
-15 9 0 -44 -97 -83 -154 -42 -61 -109 -118 -173 -150 -31 -15 -62 -29 -70
-30 -7 -2 -20 -6 -29 -10 -9 -4 -27 -8 -41 -10 -13 -1 -28 -5 -34 -9 -6 -3
-19 -4 -30 -3 -10 2 -23 1 -29 -3 -16 -9 -225 -8 -231 1 -3 5 -9 6 -14 3 -25
-16 -101 60 -85 85 3 6 3 16 -2 23 -6 10 -13 148 -13 252 0 109 7 233 14 243
4 7 5 16 2 19 -3 3 1 18 9 33 12 24 30 38 58 45 4 2 8 4 10 5 3 4 55 9 119 13
32 2 60 6 64 9 11 12 12 68 1 75 -5 3 -31 7 -56 8 -25 2 -48 4 -51 5 -3 1 -45
3 -95 5 -49 1 -92 3 -95 5 -3 1 -18 3 -35 5 -16 1 -32 3 -35 4 -3 0 -6 202 -5
449 0 246 -2 456 -6 467 -5 16 -16 19 -68 20 -34 0 -64 -2 -67 -4z"/>
</g>
</svg>
